<svg xmlns="http://www.w3.org/2000/svg" width="1024" height="1024" viewBox="0 0 1024 1024">
  <rect width="1024" height="1024" fill="#11130f"/>
  <g stroke="#2f3a28" stroke-width="1">
    <path d="M0 128H1024M0 256H1024M0 384H1024M0 512H1024M0 640H1024M0 768H1024M0 896H1024"/>
    <path d="M128 0V1024M256 0V1024M384 0V1024M512 0V1024M640 0V1024M768 0V1024M896 0V1024"/>
  </g>
  <line x1="512" y1="0" x2="512" y2="1024" stroke="#c6f56d" stroke-width="4" stroke-dasharray="16 16"/>
  <line x1="0" y1="860" x2="1024" y2="860" stroke="#e1c16e" stroke-width="6"/>
  <g fill="none" stroke="#f2ead7" stroke-width="6" opacity="0.85">
    <ellipse cx="512" cy="268" rx="76" ry="92"/>
    <path d="M512 356 C444 396 428 536 472 650 C500 670 544 670 572 650 C612 536 584 396 512 356Z"/>
    <path d="M448 464 C376 500 356 588 372 680"/>
    <path d="M584 460 C664 488 692 572 672 676"/>
    <path d="M472 652 C436 720 428 796 460 860"/>
    <path d="M552 652 C604 720 612 796 564 860"/>
  </g>
  <g font-family="Arial, sans-serif" font-size="24" fill="#f2ead7">
    <g fill="#c6f56d">
      <circle cx="512" cy="340" r="10"/>
      <circle cx="512" cy="356" r="10"/>
      <circle cx="584" cy="460" r="10"/>
      <circle cx="448" cy="464" r="10"/>
      <circle cx="512" cy="650" r="10"/>
      <circle cx="552" cy="652" r="10"/>
      <circle cx="472" cy="652" r="10"/>
      <circle cx="564" cy="860" r="10"/>
      <circle cx="460" cy="860" r="10"/>
    </g>
    <text x="528" y="332">head_neck 512,340</text>
    <text x="528" y="382">torso_neck 512,356</text>
    <text x="600" y="450">front_shoulder 584,460</text>
    <text x="92" y="456">back_shoulder 448,464</text>
    <text x="528" y="640">torso_hips 512,650</text>
    <text x="570" y="686">front_leg_hip 552,652</text>
    <text x="128" y="686">back_leg_hip 472,652</text>
    <text x="584" y="848">front_foot 564,860</text>
    <text x="160" y="848">back_foot 460,860</text>
    <text x="28" y="48" fill="#e1c16e">zombie_side_v1 - 1024x1024 - right-facing - ground y=860</text>
  </g>
</svg>
